<svg xmlns="http://www.w3.org/2000/svg" viewBox="0 0 1200 600" style="background:#0a0f1a"><line x1="0" y1="0" x2="1200" y2="0" stroke="#1a2540" stroke-width="0.5"/><line x1="0" y1="50" x2="1200" y2="50" stroke="#1a2540" stroke-width="0.5"/><line x1="0" y1="100" x2="1200" y2="100" stroke="#1a2540" stroke-width="0.5"/><line x1="0" y1="150" x2="1200" y2="150" stroke="#1a2540" stroke-width="0.5"/><line x1="0" y1="200" x2="1200" y2="200" stroke="#1a2540" stroke-width="0.5"/><line x1="0" y1="250" x2="1200" y2="250" stroke="#1a2540" stroke-width="0.5"/><line x1="0" y1="300" x2="1200" y2="300" stroke="#1a2540" stroke-width="0.5"/><line x1="0" y1="350" x2="1200" y2="350" stroke="#1a2540" stroke-width="0.5"/><line x1="0" y1="400" x2="1200" y2="400" stroke="#1a2540" stroke-width="0.5"/><line x1="0" y1="450" x2="1200" y2="450" stroke="#1a2540" stroke-width="0.5"/><line x1="0" y1="500" x2="1200" y2="500" stroke="#1a2540" stroke-width="0.5"/><line x1="0" y1="550" x2="1200" y2="550" stroke="#1a2540" stroke-width="0.5"/><line x1="0" y1="600" x2="1200" y2="600" stroke="#1a2540" stroke-width="0.5"/><line x1="0" y1="0" x2="0" y2="600" stroke="#1a2540" stroke-width="0.5"/><line x1="50" y1="0" x2="50" y2="600" stroke="#1a2540" stroke-width="0.5"/><line x1="100" y1="0" x2="100" y2="600" stroke="#1a2540" stroke-width="0.5"/><line x1="150" y1="0" x2="150" y2="600" stroke="#1a2540" stroke-width="0.5"/><line x1="200" y1="0" x2="200" y2="600" stroke="#1a2540" stroke-width="0.5"/><line x1="250" y1="0" x2="250" y2="600" stroke="#1a2540" stroke-width="0.5"/><line x1="300" y1="0" x2="300" y2="600" stroke="#1a2540" stroke-width="0.5"/><line x1="350" y1="0" x2="350" y2="600" stroke="#1a2540" stroke-width="0.5"/><line x1="400" y1="0" x2="400" y2="600" stroke="#1a2540" stroke-width="0.5"/><line x1="450" y1="0" x2="450" y2="600" stroke="#1a2540" stroke-width="0.5"/><line x1="500" y1="0" x2="500" y2="600" stroke="#1a2540" stroke-width="0.5"/><line x1="550" y1="0" x2="550" y2="600" stroke="#1a2540" stroke-width="0.5"/><line x1="600" y1="0" x2="600" y2="600" stroke="#1a2540" stroke-width="0.5"/><line x1="650" y1="0" x2="650" y2="600" stroke="#1a2540" stroke-width="0.5"/><line x1="700" y1="0" x2="700" y2="600" stroke="#1a2540" stroke-width="0.5"/><line x1="750" y1="0" x2="750" y2="600" stroke="#1a2540" stroke-width="0.5"/><line x1="800" y1="0" x2="800" y2="600" stroke="#1a2540" stroke-width="0.5"/><line x1="850" y1="0" x2="850" y2="600" stroke="#1a2540" stroke-width="0.5"/><line x1="900" y1="0" x2="900" y2="600" stroke="#1a2540" stroke-width="0.5"/><line x1="950" y1="0" x2="950" y2="600" stroke="#1a2540" stroke-width="0.5"/><line x1="1000" y1="0" x2="1000" y2="600" stroke="#1a2540" stroke-width="0.5"/><line x1="1050" y1="0" x2="1050" y2="600" stroke="#1a2540" stroke-width="0.5"/><line x1="1100" y1="0" x2="1100" y2="600" stroke="#1a2540" stroke-width="0.5"/><line x1="1150" y1="0" x2="1150" y2="600" stroke="#1a2540" stroke-width="0.5"/><line x1="1200" y1="0" x2="1200" y2="600" stroke="#1a2540" stroke-width="0.5"/><text x="1034.5882352941173" y="178.67976470588235" fill="#ff4444" font-size="20" font-weight="bold" text-anchor="middle" opacity="0.7">北美洲</text><text x="580.1365573770496" y="208.71583770491807" fill="#ff4444" font-size="20" font-weight="bold" text-anchor="middle" opacity="0.7">亚洲</text><text x="280.5038045454545" y="133.060615909091" fill="#ff4444" font-size="20" font-weight="bold" text-anchor="middle" opacity="0.7">欧洲</text><text x="415.5555999999999" y="111.6666" fill="#ff4444" font-size="20" font-weight="bold" text-anchor="middle" opacity="0.7">欧洲/亚洲</text><text x="218.22211428571424" y="365.03180000000003" fill="#ff4444" font-size="20" font-weight="bold" text-anchor="middle" opacity="0.7">南美洲</text><text x="759.2592000000001" y="419.5925333333333" fill="#ff4444" font-size="20" font-weight="bold" text-anchor="middle" opacity="0.7">大洋洲</text><text x="309.43856842105265" y="284.50875789473685" fill="#ff4444" font-size="20" font-weight="bold" text-anchor="middle" opacity="0.7">非洲</text><circle cx="1041.9996" cy="174" r="3" fill="#00ccff" opacity="0.8"/><circle cx="1043.6664" cy="175.6668" r="3" fill="#00ccff" opacity="0.8"/><circle cx="1056" cy="186.3336" r="2" fill="#0088cc" opacity="0.8"/><circle cx="1059.3336" cy="190.9998" r="1.5" fill="#005588" opacity="0.8"/><circle cx="1042.3332" cy="141.3336" r="3" fill="#00ccff" opacity="0.8"/><circle cx="1041" cy="148.3332" r="1.5" fill="#005588" opacity="0.8"/><circle cx="3.3336" cy="164.33339999999998" r="3" fill="#00ccff" opacity="0.8"/><circle cx="12.999600000000001" cy="158.6664" r="3" fill="#00ccff" opacity="0.8"/><circle cx="1193.3328" cy="170.3334" r="2" fill="#0088cc" opacity="0.8"/><circle cx="1199.3328" cy="166.66680000000002" r="1.5" fill="#005588" opacity="0.8"/><circle cx="1158" cy="160.3332" r="2" fill="#0088cc" opacity="0.8"/><circle cx="1173.3336" cy="159" r="1.5" fill="#005588" opacity="0.8"/><circle cx="1124.3328" cy="199.0002" r="2" fill="#0088cc" opacity="0.8"/><circle cx="1127.3328" cy="190.6668" r="2" fill="#0088cc" opacity="0.8"/><circle cx="1131.9995999999999" cy="200.6664" r="1.5" fill="#005588" opacity="0.8"/><circle cx="1182.6672" cy="214.0002" r="1.5" fill="#005588" opacity="0.8"/><circle cx="1168.6668" cy="187.6668" r="2" fill="#0088cc" opacity="0.8"/><circle cx="1100.0004" cy="167.6664" r="1.5" fill="#005588" opacity="0.8"/><circle cx="1076.3328" cy="188.6664" r="1.5" fill="#005588" opacity="0.8"/><circle cx="1066.3332" cy="179.3334" r="1.5" fill="#005588" opacity="0.8"/><circle cx="1077" cy="163.9998" r="1.5" fill="#005588" opacity="0.8"/><circle cx="1139.0004" cy="150" r="1.5" fill="#005588" opacity="0.8"/><circle cx="1149.3336" cy="171.3336" r="1.5" fill="#005588" opacity="0.8"/><circle cx="1183.3332" cy="165.33360000000002" r="1.5" fill="#005588" opacity="0.8"/><circle cx="1188" cy="180.66660000000002" r="1.5" fill="#005588" opacity="0.8"/><circle cx="1173.3336" cy="166.66680000000002" r="1.5" fill="#005588" opacity="0.8"/><circle cx="1160.6664" cy="179.3334" r="1.5" fill="#005588" opacity="0.8"/><circle cx="1168.3332" cy="169.6668" r="1.5" fill="#005588" opacity="0.8"/><circle cx="1134.6671999999999" cy="169.6668" r="1.5" fill="#005588" opacity="0.8"/><circle cx="1178.6664" cy="205.0002" r="1.5" fill="#005588" opacity="0.8"/><circle cx="1175.0004" cy="206.66639999999998" r="1.5" fill="#005588" opacity="0.8"/><circle cx="1121.6664" cy="202.0002" r="1.5" fill="#005588" opacity="0.8"/><circle cx="1130.0004000000001" cy="162.33360000000002" r="1.5" fill="#005588" opacity="0.8"/><circle cx="1152" cy="156.33360000000002" r="1.5" fill="#005588" opacity="0.8"/><circle cx="950.3328" cy="96" r="1.5" fill="#005588" opacity="0.8"/><circle cx="923.6664000000001" cy="229.00019999999998" r="1.5" fill="#005588" opacity="0.8"/><circle cx="638.0004" cy="166.9998" r="3" fill="#00ccff" opacity="0.8"/><circle cx="654.9996" cy="196.00019999999998" r="3" fill="#00ccff" opacity="0.8"/><circle cx="630.3336" cy="225" r="3" fill="#00ccff" opacity="0.8"/><circle cx="627.6672" cy="223.0002" r="2" fill="#0088cc" opacity="0.8"/><circle cx="650.6664" cy="199.0002" r="3" fill="#00ccff" opacity="0.8"/><circle cx="597" cy="198" r="2" fill="#0088cc" opacity="0.8"/><circle cx="630.9996" cy="198" r="2" fill="#0088cc" opacity="0.8"/><circle cx="645.9996" cy="193.00019999999998" r="2" fill="#0088cc" opacity="0.8"/><circle cx="605.3328" cy="201.6666" r="2" fill="#0088cc" opacity="0.8"/><circle cx="612.9996" cy="185.6664" r="1.5" fill="#005588" opacity="0.8"/><circle cx="640.6668" cy="169.6668" r="1.5" fill="#005588" opacity="0.8"/><circle cx="651.9996" cy="195.6666" r="2" fill="#0088cc" opacity="0.8"/><circle cx="629.3328" cy="223.3332" r="1.5" fill="#005588" opacity="0.8"/><circle cx="628.6668000000001" cy="225.6666" r="1.5" fill="#005588" opacity="0.8"/><circle cx="627" cy="223.3332" r="1.5" fill="#005588" opacity="0.8"/><circle cx="626.6664" cy="205.9998" r="1.5" fill="#005588" opacity="0.8"/><circle cx="629.0004" cy="184.0002" r="1.5" fill="#005588" opacity="0.8"/><circle cx="651.3335999999999" cy="179.66639999999998" r="1.5" fill="#005588" opacity="0.8"/><circle cx="655.3332" cy="170.3334" r="1.5" fill="#005588" opacity="0.8"/><circle cx="643.6668" cy="218.3334" r="1.5" fill="#005588" opacity="0.8"/><circle cx="654.9996" cy="200.33339999999998" r="1.5" fill="#005588" opacity="0.8"/><circle cx="651" cy="194.6664" r="1.5" fill="#005588" opacity="0.8"/><circle cx="640.6668" cy="193.9998" r="2" fill="#0088cc" opacity="0.8"/><circle cx="639.9996" cy="177.66660000000002" r="1.5" fill="#005588" opacity="0.8"/><circle cx="647.6664000000001" cy="213" r="1.5" fill="#005588" opacity="0.8"/><circle cx="592.3332" cy="216.66660000000002" r="1.5" fill="#005588" opacity="0.8"/><circle cx="605.3328" cy="211.33319999999998" r="1.5" fill="#005588" opacity="0.8"/><circle cx="636.3336" cy="204.33360000000002" r="1.5" fill="#005588" opacity="0.8"/><circle cx="661.3332" cy="160.66680000000002" r="1.5" fill="#005588" opacity="0.8"/><circle cx="667.6668000000001" cy="153.6666" r="1.5" fill="#005588" opacity="0.8"/><circle cx="672.0000000000001" cy="147.3336" r="1.5" fill="#005588" opacity="0.8"/><circle cx="624.9996" cy="173.66639999999998" r="1.5" fill="#005588" opacity="0.8"/><circle cx="631.6668" cy="173.3334" r="1.5" fill="#005588" opacity="0.8"/><circle cx="611.0004" cy="223.99980000000002" r="1.5" fill="#005588" opacity="0.8"/><circle cx="553.6668" cy="201" r="1.5" fill="#005588" opacity="0.8"/><circle cx="542.0004" cy="154.00019999999998" r="1.5" fill="#005588" opacity="0.8"/><circle cx="596.0004" cy="179.66639999999998" r="1.5" fill="#005588" opacity="0.8"/><circle cx="604.3332" cy="171.66660000000002" r="1.5" fill="#005588" opacity="0.8"/><circle cx="589.3332" cy="178.0002" r="1.5" fill="#005588" opacity="0.8"/><circle cx="622.3332" cy="163.9998" r="1.5" fill="#005588" opacity="0.8"/><circle cx="715.6668" cy="181.0002" r="3" fill="#00ccff" opacity="0.8"/><circle cx="715.3331999999999" cy="181.99980000000002" r="1.5" fill="#005588" opacity="0.8"/><circle cx="701.6664" cy="184.3332" r="2" fill="#0088cc" opacity="0.8"/><circle cx="702.6672" cy="183.3336" r="2" fill="#0088cc" opacity="0.8"/><circle cx="706.3332" cy="182.66639999999998" r="1.5" fill="#005588" opacity="0.8"/><circle cx="684.6672" cy="187.9998" r="1.5" fill="#005588" opacity="0.8"/><circle cx="720.9996" cy="156.33360000000002" r="1.5" fill="#005588" opacity="0.8"/><circle cx="700.6668" cy="184.3332" r="1.5" fill="#005588" opacity="0.8"/><circle cx="719.6664" cy="172.33319999999998" r="1.5" fill="#005588" opacity="0.8"/><circle cx="691.6668000000001" cy="185.3334" r="1.5" fill="#005588" opacity="0.8"/><circle cx="717" cy="179.66639999999998" r="2" fill="#0088cc" opacity="0.8"/><circle cx="673.3332" cy="174.66660000000002" r="3" fill="#00ccff" opacity="0.8"/><circle cx="680.3328" cy="182.66639999999998" r="1.5" fill="#005588" opacity="0.8"/><circle cx="672.3336" cy="175.0002" r="1.5" fill="#005588" opacity="0.8"/><circle cx="674.6664" cy="178.99980000000002" r="1.5" fill="#005588" opacity="0.8"/><circle cx="678.6672" cy="180.3336" r="1.5" fill="#005588" opacity="0.8"/><circle cx="672.9996" cy="182.66639999999998" r="1.5" fill="#005588" opacity="0.8"/><circle cx="673.3332" cy="175.6668" r="1.5" fill="#005588" opacity="0.8"/><circle cx="673.6668000000001" cy="175.33319999999998" r="2" fill="#0088cc" opacity="0.8"/><circle cx="294.6672" cy="124.9998" r="3" fill="#00ccff" opacity="0.8"/><circle cx="288.6672" cy="139.6668" r="2" fill="#0088cc" opacity="0.8"/><circle cx="279" cy="133.0002" r="2" fill="#0088cc" opacity="0.8"/><circle cx="283.3332" cy="121.3332" r="1.5" fill="#005588" opacity="0.8"/><circle cx="280.6668" cy="137.3334" r="1.5" fill="#005588" opacity="0.8"/><circle cx="273.3336" cy="130.3332" r="1.5" fill="#005588" opacity="0.8"/><circle cx="272.6664" cy="129.3336" r="1.5" fill="#005588" opacity="0.8"/><circle cx="291.3336" cy="129" r="1.5" fill="#005588" opacity="0.8"/><circle cx="295.6668" cy="130.0002" r="1.5" fill="#005588" opacity="0.8"/><circle cx="249.66719999999998" cy="128.33339999999998" r="3" fill="#00ccff" opacity="0.8"/><circle cx="250.33319999999998" cy="126" r="2" fill="#0088cc" opacity="0.8"/><circle cx="245.66639999999998" cy="127.33319999999999" r="2" fill="#0088cc" opacity="0.8"/><circle cx="242.6664" cy="121.66680000000001" r="1.5" fill="#005588" opacity="0.8"/><circle cx="243.66719999999998" cy="124.9998" r="1.5" fill="#005588" opacity="0.8"/><circle cx="239.33280000000002" cy="113.6664" r="1.5" fill="#005588" opacity="0.8"/><circle cx="241.3332" cy="128.33339999999998" r="1.5" fill="#005588" opacity="0.8"/><circle cx="245.00039999999998" cy="120.6666" r="1.5" fill="#005588" opacity="0.8"/><circle cx="235.66680000000002" cy="113.6664" r="1.5" fill="#005588" opacity="0.8"/><circle cx="257.6664" cy="136.9998" r="3" fill="#00ccff" opacity="0.8"/><circle cx="266.0004" cy="147.3336" r="1.5" fill="#005588" opacity="0.8"/><circle cx="267.9996" cy="155.6664" r="1.5" fill="#005588" opacity="0.8"/><circle cx="254.66639999999998" cy="154.6668" r="1.5" fill="#005588" opacity="0.8"/><circle cx="260.3328" cy="131.3334" r="1.5" fill="#005588" opacity="0.8"/><circle cx="248.00039999999998" cy="150.6666" r="1.5" fill="#005588" opacity="0.8"/><circle cx="269.0004" cy="149.3334" r="1.5" fill="#005588" opacity="0.8"/><circle cx="274.33320000000003" cy="154.3332" r="1.5" fill="#005588" opacity="0.8"/><circle cx="1185.3336000000002" cy="154.3332" r="3" fill="#00ccff" opacity="0.8"/><circle cx="1039.6668" cy="135.66660000000002" r="2" fill="#0088cc" opacity="0.8"/><circle cx="4.6668" cy="148.3332" r="2" fill="#0088cc" opacity="0.8"/><circle cx="1197.6672" cy="148.6668" r="1.5" fill="#005588" opacity="0.8"/><circle cx="1069.6668" cy="130.0002" r="1.5" fill="#005588" opacity="0.8"/><circle cx="1071.6671999999999" cy="121.66680000000001" r="1.5" fill="#005588" opacity="0.8"/><circle cx="12.6672" cy="144" r="1.5" fill="#005588" opacity="0.8"/><circle cx="1181.6664" cy="154.9998" r="2" fill="#0088cc" opacity="0.8"/><circle cx="508.6668" cy="256.9998" r="3" fill="#00ccff" opacity="0.8"/><circle cx="492.9996" cy="236.33339999999998" r="2" fill="#0088cc" opacity="0.8"/><circle cx="507.3336" cy="204.6666" r="2" fill="#0088cc" opacity="0.8"/><circle cx="511.6668" cy="241.9998" r="2" fill="#0088cc" opacity="0.8"/><circle cx="517.6668000000001" cy="256.3332" r="1.5" fill="#005588" opacity="0.8"/><circle cx="496.33320000000003" cy="238.3332" r="1.5" fill="#005588" opacity="0.8"/><circle cx="491.99999999999994" cy="223.3332" r="1.5" fill="#005588" opacity="0.8"/><circle cx="544.6668" cy="224.6664" r="1.5" fill="#005588" opacity="0.8"/><circle cx="502.6668" cy="210.3336" r="1.5" fill="#005588" opacity="0.8"/><circle cx="507.99960000000004" cy="204.6666" r="1.5" fill="#005588" opacity="0.8"/><circle cx="366" cy="193.00019999999998" r="3" fill="#00ccff" opacity="0.8"/><circle cx="367.33320000000003" cy="193.9998" r="1.5" fill="#005588" opacity="0.8"/><circle cx="366.6672" cy="190.6668" r="1.5" fill="#005588" opacity="0.8"/><circle cx="366" cy="192.6666" r="2" fill="#0088cc" opacity="0.8"/><circle cx="596.0004" cy="295.6668" r="3" fill="#00ccff" opacity="0.8"/><circle cx="375.3336" cy="114" r="2" fill="#0088cc" opacity="0.8"/><circle cx="351" cy="100.3332" r="1.5" fill="#005588" opacity="0.8"/><circle cx="526.6668" cy="116.66640000000001" r="1.5" fill="#005588" opacity="0.8"/><circle cx="413.66639999999995" cy="114" r="1.5" fill="#005588" opacity="0.8"/><circle cx="452.00039999999996" cy="110.6664" r="1.5" fill="#005588" opacity="0.8"/><circle cx="374.6664" cy="114.3336" r="1.5" fill="#005588" opacity="0.8"/><circle cx="94.6668" cy="378.3336" r="3" fill="#00ccff" opacity="0.8"/><circle cx="105.99959999999999" cy="376.3332" r="1.5" fill="#005588" opacity="0.8"/><circle cx="90.3336" cy="352.6668" r="1.5" fill="#005588" opacity="0.8"/><circle cx="103.6668" cy="366.3336" r="1.5" fill="#005588" opacity="0.8"/><circle cx="79.3332" cy="400.0002" r="1.5" fill="#005588" opacity="0.8"/><circle cx="85.6668" cy="384.6666" r="1.5" fill="#005588" opacity="0.8"/><circle cx="93" cy="376.3332" r="1.5" fill="#005588" opacity="0.8"/><circle cx="753.9996" cy="412.9998" r="2" fill="#0088cc" opacity="0.8"/><circle cx="733.3331999999999" cy="426" r="2" fill="#0088cc" opacity="0.8"/><circle cx="759.9996" cy="391.66679999999997" r="1.5" fill="#005588" opacity="0.8"/><circle cx="636.3336" cy="406.3332" r="1.5" fill="#005588" opacity="0.8"/><circle cx="711.9996" cy="416.3334" r="1.5" fill="#005588" opacity="0.8"/><circle cx="747.0000000000001" cy="417.6666" r="1.5" fill="#005588" opacity="0.8"/><circle cx="266.3328" cy="125.3334" r="3" fill="#00ccff" opacity="0.8"/><circle cx="264.9996" cy="127.00019999999999" r="1.5" fill="#005588" opacity="0.8"/><circle cx="264.3336" cy="126.33359999999999" r="1.5" fill="#005588" opacity="0.8"/><circle cx="268.33320000000003" cy="128.6664" r="2" fill="#0088cc" opacity="0.8"/><circle cx="267" cy="126.33359999999999" r="1.5" fill="#005588" opacity="0.8"/><circle cx="310.3332" cy="102.3336" r="3" fill="#00ccff" opacity="0.8"/><circle cx="289.66679999999997" cy="107.6664" r="1.5" fill="#005588" opacity="0.8"/><circle cx="293.3328" cy="114.6666" r="1.5" fill="#005588" opacity="0.8"/><circle cx="308.6664" cy="100.3332" r="1.5" fill="#005588" opacity="0.8"/><circle cx="302.00039999999996" cy="105.33359999999999" r="1.5" fill="#005588" opacity="0.8"/><circle cx="278.3328" cy="142.0002" r="3" fill="#00ccff" opacity="0.8"/><circle cx="270.3336" cy="145.9998" r="2" fill="#0088cc" opacity="0.8"/><circle cx="275.3328" cy="141.3336" r="1.5" fill="#005588" opacity="0.8"/><circle cx="274.6668" cy="143.66639999999998" r="1.5" fill="#005588" opacity="0.8"/><circle cx="272.0004" cy="145.0002" r="2" fill="#0088cc" opacity="0.8"/><circle cx="655.3332" cy="216.66660000000002" r="3" fill="#00ccff" opacity="0.8"/><circle cx="653.3328" cy="217.3332" r="2" fill="#0088cc" opacity="0.8"/><circle cx="652.3331999999999" cy="219.66660000000002" r="1.5" fill="#005588" opacity="0.8"/><circle cx="651" cy="224.6664" r="1.5" fill="#005588" opacity="0.8"/><circle cx="650.6664" cy="223.3332" r="1.5" fill="#005588" opacity="0.8"/><circle cx="434.33279999999996" cy="216" r="2" fill="#0088cc" opacity="0.8"/><circle cx="431.33279999999996" cy="218.3334" r="1.5" fill="#005588" opacity="0.8"/><circle cx="434.6664" cy="215.3334" r="1.5" fill="#005588" opacity="0.8"/><circle cx="606" cy="320.6664" r="2" fill="#0088cc" opacity="0.8"/><circle cx="608.6664" cy="322.9998" r="1.5" fill="#005588" opacity="0.8"/><circle cx="625.6668" cy="324.33360000000005" r="1.5" fill="#005588" opacity="0.8"/><circle cx="618" cy="325.9998" r="1.5" fill="#005588" opacity="0.8"/><circle cx="291.6672" cy="160.3332" r="2" fill="#0088cc" opacity="0.8"/><circle cx="280.6668" cy="148.3332" r="2" fill="#0088cc" opacity="0.8"/><circle cx="275.6664" cy="149.6664" r="1.5" fill="#005588" opacity="0.8"/><circle cx="287.6664" cy="151.6668" r="1.5" fill="#005588" opacity="0.8"/><circle cx="297.6672" cy="163.66680000000002" r="1.5" fill="#005588" opacity="0.8"/><circle cx="237.6672" cy="165.33360000000002" r="2" fill="#0088cc" opacity="0.8"/><circle cx="257.3328" cy="162" r="2" fill="#0088cc" opacity="0.8"/><circle cx="248.66639999999998" cy="168.33360000000002" r="1.5" fill="#005588" opacity="0.8"/><circle cx="230.0004" cy="175.33319999999998" r="1.5" fill="#005588" opacity="0.8"/><circle cx="240.33360000000002" cy="155.6664" r="1.5" fill="#005588" opacity="0.8"/><circle cx="1119.6672" cy="235.3332" r="2" fill="#0088cc" opacity="0.8"/><circle cx="1105.6668" cy="231" r="1.5" fill="#005588" opacity="0.8"/><circle cx="1115.6664" cy="214.33319999999998" r="1.5" fill="#005588" opacity="0.8"/><circle cx="1122.6672" cy="236.6664" r="1.5" fill="#005588" opacity="0.8"/><circle cx="343.33320000000003" cy="387.3336" r="2" fill="#0088cc" opacity="0.8"/><circle cx="311.3328" cy="412.9998" r="1.5" fill="#005588" opacity="0.8"/><circle cx="353.33279999999996" cy="399.6666" r="1.5" fill="#005588" opacity="0.8"/><circle cx="344.0004" cy="385.66679999999997" r="1.5" fill="#005588" opacity="0.8"/><circle cx="605.6664" cy="264" r="1.5" fill="#005588" opacity="0.8"/><circle cx="602.6664" cy="229.9998" r="1.5" fill="#005588" opacity="0.8"/><circle cx="610.6668000000001" cy="246.3336" r="1.5" fill="#005588" opacity="0.8"/><circle cx="585" cy="253.99980000000002" r="2" fill="#0088cc" opacity="0.8"/><circle cx="579.9996" cy="237.33360000000002" r="1.5" fill="#005588" opacity="0.8"/><circle cx="586.3332" cy="256.9998" r="1.5" fill="#005588" opacity="0.8"/><circle cx="588.9996" cy="289.66679999999997" r="2" fill="#0088cc" opacity="0.8"/><circle cx="584.3328" cy="282" r="1.5" fill="#005588" opacity="0.8"/><circle cx="595.6668000000001" cy="295.0002" r="1.5" fill="#005588" opacity="0.8"/><circle cx="320.0004" cy="126" r="1.5" fill="#005588" opacity="0.8"/><circle cx="316.3332" cy="133.0002" r="1.5" fill="#005588" opacity="0.8"/><circle cx="306.6672" cy="129.6666" r="1.5" fill="#005588" opacity="0.8"/><circle cx="312" cy="118.66680000000001" r="1.5" fill="#005588" opacity="0.8"/><circle cx="333.00000000000006" cy="99.3336" r="2" fill="#0088cc" opacity="0.8"/><circle cx="332.3328" cy="99.3336" r="1.5" fill="#005588" opacity="0.8"/><circle cx="329.3328" cy="94.99980000000001" r="1.5" fill="#005588" opacity="0.8"/><circle cx="335.0004" cy="83.33340000000001" r="1.5" fill="#005588" opacity="0.8"/><circle cx="228.99960000000002" cy="122.3334" r="3" fill="#00ccff" opacity="0.8"/><circle cx="221.6664" cy="127.00019999999999" r="1.5" fill="#005588" opacity="0.8"/><circle cx="219.6672" cy="122.3334" r="1.5" fill="#005588" opacity="0.8"/><circle cx="221.3328" cy="124.33319999999999" r="1.5" fill="#005588" opacity="0.8"/><circle cx="285.6672" cy="100.3332" r="2" fill="#0088cc" opacity="0.8"/><circle cx="267.6672" cy="98.66640000000001" r="1.5" fill="#005588" opacity="0.8"/><circle cx="284.6664" cy="88.6668" r="1.5" fill="#005588" opacity="0.8"/><circle cx="291.9996" cy="114.3336" r="3" fill="#00ccff" opacity="0.8"/><circle cx="284.0004" cy="112.6668" r="1.5" fill="#005588" opacity="0.8"/><circle cx="284.6664" cy="115.3332" r="1.5" fill="#005588" opacity="0.8"/><circle cx="297.9996" cy="133.0002" r="2" fill="#0088cc" opacity="0.8"/><circle cx="305.3328" cy="136.0002" r="1.5" fill="#005588" opacity="0.8"/><circle cx="336.9996" cy="151.9998" r="1.5" fill="#005588" opacity="0.8"/><circle cx="328.66679999999997" cy="144" r="1.5" fill="#005588" opacity="0.8"/><circle cx="351.6672" cy="131.6664" r="1.5" fill="#005588" opacity="0.8"/><circle cx="330" cy="133.9998" r="1.5" fill="#005588" opacity="0.8"/><circle cx="304.66679999999997" cy="139.3332" r="2" fill="#0088cc" opacity="0.8"/><circle cx="301.3332" cy="142.9998" r="1.5" fill="#005588" opacity="0.8"/><circle cx="264.6672" cy="130.6668" r="2" fill="#0088cc" opacity="0.8"/><circle cx="264.6672" cy="129.3336" r="1.5" fill="#005588" opacity="0.8"/><circle cx="219.6672" cy="170.99999999999997" r="2" fill="#0088cc" opacity="0.8"/><circle cx="221.3328" cy="162.6666" r="1.5" fill="#005588" opacity="0.8"/><circle cx="329.0004" cy="173.3334" r="2" fill="#0088cc" opacity="0.8"/><circle cx="326.3328" cy="164.6664" r="1.5" fill="#005588" opacity="0.8"/><circle cx="313.3332" cy="141.6666" r="2" fill="#0088cc" opacity="0.8"/><circle cx="321.9996" cy="141.6666" r="1.5" fill="#005588" opacity="0.8"/><circle cx="405.66720000000004" cy="217.99980000000002" r="2" fill="#0088cc" opacity="0.8"/><circle cx="380.6664" cy="228.3336" r="1.5" fill="#005588" opacity="0.8"/><circle cx="346.33320000000003" cy="163.3332" r="2" fill="#0088cc" opacity="0.8"/><circle cx="359.6664" cy="166.9998" r="2" fill="#0088cc" opacity="0.8"/><circle cx="340.3332" cy="172.0002" r="1.5" fill="#005588" opacity="0.8"/><circle cx="354" cy="199.9998" r="2" fill="#0088cc" opacity="0.8"/><circle cx="349.6668" cy="196.00019999999998" r="1.5" fill="#005588" opacity="0.8"/><circle cx="261.3336" cy="278.3334" r="2" fill="#0088cc" opacity="0.8"/><circle cx="275.0004" cy="269.6664" r="1.5" fill="#005588" opacity="0.8"/><circle cx="372.6672" cy="304.3332" r="2" fill="#0088cc" opacity="0.8"/><circle cx="382.3332" cy="313.3332" r="1.5" fill="#005588" opacity="0.8"/><circle cx="224.6664" cy="187.9998" r="2" fill="#0088cc" opacity="0.8"/><circle cx="227.3328" cy="186.66660000000002" r="1.5" fill="#005588" opacity="0.8"/><circle cx="55.3332" cy="415.3332" r="2" fill="#0088cc" opacity="0.8"/><circle cx="36" cy="404.6664" r="1.5" fill="#005588" opacity="0.8"/><circle cx="48" cy="409.6668" r="1.5" fill="#005588" opacity="0.8"/><circle cx="14.332799999999999" cy="411.33360000000005" r="2" fill="#0088cc" opacity="0.8"/><circle cx="11.332799999999999" cy="409.9998" r="1.5" fill="#005588" opacity="0.8"/><circle cx="3" cy="284.6664" r="2" fill="#0088cc" opacity="0.8"/><circle cx="1197.9996" cy="279.3336" r="1.5" fill="#005588" opacity="0.8"/><circle cx="1193.3328" cy="340.0002" r="2" fill="#0088cc" opacity="0.8"/><circle cx="11.6664" cy="354.6666" r="1.5" fill="#005588" opacity="0.8"/><circle cx="832.6668" cy="422.66639999999995" r="2" fill="#0088cc" opacity="0.8"/><circle cx="832.6668" cy="437.6664" r="1.5" fill="#005588" opacity="0.8"/><circle cx="825.3336" cy="445.0002" r="1.5" fill="#005588" opacity="0.8"/><circle cx="473.3328" cy="217.0002" r="1.5" fill="#005588" opacity="0.8"/><circle cx="493.6668" cy="187.6668" r="1.5" fill="#005588" opacity="0.8"/><circle cx="498" cy="195" r="1.5" fill="#005588" opacity="0.8"/><circle cx="551.3328" cy="220.6668" r="1.5" fill="#005588" opacity="0.8"/><circle cx="555.9996" cy="225.6666" r="1.5" fill="#005588" opacity="0.8"/><circle cx="653.3328" cy="251.3334" r="2" fill="#0088cc" opacity="0.8"/><circle cx="663" cy="265.6668" r="1.5" fill="#005588" opacity="0.8"/><circle cx="668.6664" cy="276.3336" r="1.5" fill="#005588" opacity="0.8"/><circle cx="506.33279999999996" cy="156" r="1.5" fill="#005588" opacity="0.8"/><circle cx="488.0004" cy="129.3336" r="1.5" fill="#005588" opacity="0.8"/><circle cx="378.9996" cy="270" r="2" fill="#0088cc" opacity="0.8"/><circle cx="381" cy="322.66679999999997" r="1.5" fill="#005588" opacity="0.8"/><circle cx="249.3336" cy="281.3334" r="1.5" fill="#005588" opacity="0.8"/><circle cx="236.6664" cy="282.3336" r="1.5" fill="#005588" opacity="0.8"/><circle cx="191.6664" cy="250.9998" r="1.5" fill="#005588" opacity="0.8"/><circle cx="358.6668" cy="298.9998" r="1.5" fill="#005588" opacity="0.8"/><circle cx="284.0004" cy="177.3336" r="1.5" fill="#005588" opacity="0.8"/><circle cx="398.0004" cy="189" r="1.5" fill="#005588" opacity="0.8"/><circle cx="421.33320000000003" cy="181.0002" r="2" fill="#0088cc" opacity="0.8"/><circle cx="422.33279999999996" cy="190.9998" r="1.5" fill="#005588" opacity="0.8"/><circle cx="369.6672" cy="193.6668" r="1.5" fill="#005588" opacity="0.8"/><circle cx="421.6668" cy="215.66639999999998" r="2" fill="#0088cc" opacity="0.8"/><circle cx="409.6668" cy="202.0002" r="1.5" fill="#005588" opacity="0.8"/><circle cx="445.33320000000003" cy="221.3334" r="1.5" fill="#005588" opacity="0.8"/><circle cx="480.66720000000004" cy="162.33360000000002" r="1.5" fill="#005588" opacity="0.8"/><circle cx="516.3336" cy="277.0002" r="1.5" fill="#005588" opacity="0.8"/><circle cx="534.3336" cy="207.6666" r="1.5" fill="#005588" opacity="0.8"/><circle cx="570.6672" cy="243.6666" r="1.5" fill="#005588" opacity="0.8"/><circle cx="599.6664" cy="261.3336" r="1.5" fill="#005588" opacity="0.8"/><circle cx="327.66720000000004" cy="157.6668" r="1.5" fill="#005588" opacity="0.8"/><circle cx="318.3336" cy="150.6666" r="1.5" fill="#005588" opacity="0.8"/><circle cx="341.99999999999994" cy="120.3336" r="1.5" fill="#005588" opacity="0.8"/><circle cx="27" cy="265.0002" r="1.5" fill="#005588" opacity="0.8"/><circle cx="1188.3336" cy="300.66659999999996" r="1.5" fill="#005588" opacity="0.8"/><circle cx="62.666399999999996" cy="416.3334" r="1.5" fill="#005588" opacity="0.8"/><circle cx="23.0004" cy="355.0002" r="1.5" fill="#005588" opacity="0.8"/><circle cx="57.9996" cy="384.3336" r="2" fill="#0088cc" opacity="0.8"/><circle cx="1169.6664" cy="267" r="1.5" fill="#005588" opacity="0.8"/><circle cx="1185" cy="270" r="1.5" fill="#005588" opacity="0.8"/><circle cx="1175.3328" cy="223.0002" r="1.5" fill="#005588" opacity="0.8"/><text x="1041.9996" y="170" fill="#ffffff" font-size="9" text-anchor="middle">旧金山</text><text x="3.3336" y="160.33339999999998" fill="#ffffff" font-size="9" text-anchor="middle">纽约</text><text x="638.0004" y="162.9998" fill="#ffffff" font-size="9" text-anchor="middle">北京</text><text x="654.9996" y="192.00019999999998" fill="#ffffff" font-size="9" text-anchor="middle">上海</text><text x="630.3336" y="221" fill="#ffffff" font-size="9" text-anchor="middle">深圳</text><text x="650.6664" y="195.0002" fill="#ffffff" font-size="9" text-anchor="middle">杭州</text><text x="715.6668" y="177.0002" fill="#ffffff" font-size="9" text-anchor="middle">东京</text><text x="673.3332" y="170.66660000000002" fill="#ffffff" font-size="9" text-anchor="middle">首尔</text><text x="294.6672" y="120.9998" fill="#ffffff" font-size="9" text-anchor="middle">柏林</text><text x="249.66719999999998" y="124.33339999999998" fill="#ffffff" font-size="9" text-anchor="middle">伦敦</text><text x="257.6664" y="132.9998" fill="#ffffff" font-size="9" text-anchor="middle">巴黎</text><text x="1185.3336000000002" y="150.3332" fill="#ffffff" font-size="9" text-anchor="middle">多伦多</text><text x="508.6668" y="252.9998" fill="#ffffff" font-size="9" text-anchor="middle">班加罗尔</text><text x="507.3336" y="200.6666" fill="#ffffff" font-size="9" text-anchor="middle">新德里</text><text x="596.0004" y="291.6668" fill="#ffffff" font-size="9" text-anchor="middle">新加坡</text><text x="94.6668" y="374.3336" fill="#ffffff" font-size="9" text-anchor="middle">圣保罗</text><text x="753.9996" y="408.9998" fill="#ffffff" font-size="9" text-anchor="middle">悉尼</text><text x="228.99960000000002" y="118.3334" fill="#ffffff" font-size="9" text-anchor="middle">都柏林</text></svg>