<svg xmlns="http://www.w3.org/2000/svg" viewBox="0 0 2048 1152" style="background:#0a0f1a"><path d="M1054.375,469.743L1049.459,472.478L1044.79,470.716L1044.626,465.815L1047.432,463.244L1053.658,461.645L1056.914,461.78L1058.184,463.956L1055.685,466.46ZM1169.863,334.815L1166.197,331.464L1163.923,334.651L1155.137,337.097L1156.038,340.101L1151.103,339.889L1148.42,338.108L1144.508,342.143L1138.241,345.205L1133.592,348.854L1125.646,350.5L1121.468,353.168L1115.324,354.718L1118.355,352.079L1117.167,349.865L1121.673,346.042L1118.662,343.057L1113.706,345.07L1107.275,349.027L1103.773,352.696L1098.202,352.975L1095.294,355.623L1098.305,359.474L1102.954,360.408L1103.138,362.96L1107.644,364.626L1114.013,360.562L1119.072,362.777L1122.738,362.921L1123.659,365.906L1115.611,367.495L1112.948,370.567L1107.418,373.417L1104.51,377.403L1110.634,380.533L1112.866,386.127L1116.327,391.336L1120.198,395.707L1120.096,399.935L1116.532,401.485L1117.884,404.518L1121.243,406.29L1120.362,410.921L1118.908,415.427L1115.733,415.938L1111.576,422.1L1106.968,429.562L1101.684,436.351L1093.861,441.598L1085.955,446.393L1079.545,447.048L1076.063,449.571L1074.097,447.722L1070.882,450.553L1062.935,453.403L1056.914,454.27L1054.969,460.278L1051.815,460.615L1050.32,456.484L1051.671,454.289L1044.032,452.469L1041.349,453.393L1035.615,451.911L1032.911,449.6L1033.813,446.326L1028.611,445.286L1025.866,443.148L1021.033,446.182L1015.483,446.836L1010.957,446.807L1007.905,448.204L1004.956,449.032L1005.816,455.541L1002.785,455.387L1002.273,454.048L1002.089,451.699L997.931,453.355L995.453,452.305L991.234,450.168L992.893,445.45L989.289,444.342L987.937,439.104L981.936,440.048L982.612,433.298L987.998,428.551L988.224,423.862L988.06,419.51L985.582,418.152L983.677,414.801L980.359,415.225L974.215,414.368L976.14,411.98L973.478,408.446L969.423,410.844L964.651,409.448L958.077,413.068L952.916,417.295L948.328,418.008L945.83,416.477L942.819,416.342L938.764,415.023L935.692,416.467L931.924,420.694L931.453,416.217L927.971,417.411L921.335,416.862L914.905,415.552L910.296,413.059L905.873,411.932L903.968,409.197L900.753,408.389L895.018,404.682L890.451,402.929L888.096,404.287L880.191,400.31L874.599,396.709L873.002,390.441L877.098,391.201L877.282,388.303L875.009,385.385L875.583,380.744L869.479,374.081L860.12,371.78L858.441,367.409L854.242,364.751L853.218,363.124L852.358,359.879L852.563,357.664L849.102,356.374L847.238,356.942L845.804,351.685L847.422,350.375L846.624,349.046L852.071,346.36L856.003,345.243L862.025,346.013L864.175,342.374L871.466,341.7L873.494,339.447L882.464,336.365L883.263,335.075L882.812,331.83L886.703,330.347L881.583,320.468L892.847,318.196L895.776,316.934L899.872,306.747L911.157,308.615L914.331,306.044L914.597,300.344L919.308,299.805L923.65,296.021L925.882,295.549L927.377,299.526L932.149,302.539L940.259,304.677L944.191,309.26L942,315.904L944.048,318.369L950.806,319.342L958.466,320.141L965.347,323.684L968.849,324.32L971.45,329.558L974.789,332.937L981.056,332.803L992.811,334.083L1000.368,333.294L1005.98,334.141L1014.397,337.598L1021.279,337.588L1023.798,339.36L1030.433,336.298L1039.608,334.324L1048.149,334.112L1054.784,332.109L1058.88,329.067L1062.854,327.151L1061.932,325.273L1060.109,323.087L1063.099,319.419L1066.294,319.929L1072.152,321.084L1077.825,318.071L1086.488,315.866L1090.666,312.101L1094.659,310.483L1102.933,309.732L1107.418,310.368L1108.033,308.346L1102.892,304.369L1098.325,302.549L1093.942,304.658L1088.331,303.772L1085.115,304.484L1083.641,302.164L1087.676,296.483L1090.44,292.188L1097.26,294.336L1105.288,290.744L1105.227,288.241L1110.368,282.203L1113.542,280.384L1113.46,277.245L1110.347,275.887L1115.037,273.056L1122.103,272.035L1129.66,271.881L1138.159,273.576L1143.156,275.666L1146.679,281.404L1148.809,283.85L1150.796,287.345L1152.905,292.92L1162.797,294.74L1169.535,298.784L1171.829,304.128L1180.492,304.138L1185.407,301.894L1194.807,300.209L1191.817,305.332L1189.626,307.412L1187.66,313.641L1183.851,319.178L1176.928,318.177L1172.054,320.179L1173.549,325.052L1172.73,331.772L1169.822,331.926Z" fill="rgba(255,255,255,0.2)" stroke="#ff0" stroke-width="2"/><circle cx="1088.8540159999998" cy="374.234112" r="4" fill="#0f0"/><text x="1093.8540159999998" y="369.234112" fill="#fff" font-size="10">北京</text><circle cx="1117.865984" cy="418.22822399999995" r="4" fill="#0f0"/><text x="1122.865984" y="413.22822399999995" fill="#fff" font-size="10">上海</text><circle cx="1075.769344" cy="462.2223359999999" r="4" fill="#0f0"/><text x="1080.769344" y="457.2223359999999" fill="#fff" font-size="10">深圳</text><circle cx="1071.218688" cy="459.188224" r="4" fill="#0f0"/><text x="1076.218688" y="454.188224" fill="#fff" font-size="10">广州</text><circle cx="1110.470656" cy="422.77887999999996" r="4" fill="#0f0"/><text x="1115.470656" y="417.77887999999996" fill="#fff" font-size="10">杭州</text><circle cx="1018.88" cy="421.262336" r="4" fill="#0f0"/><text x="1023.88" y="416.262336" fill="#fff" font-size="10">成都</text><circle cx="1076.905984" cy="421.262336" r="4" fill="#0f0"/><text x="1081.905984" y="416.262336" fill="#fff" font-size="10">武汉</text><circle cx="1102.505984" cy="413.6765439999999" r="4" fill="#0f0"/><text x="1107.505984" y="408.6765439999999" fill="#fff" font-size="10">南京</text><circle cx="1033.101312" cy="426.824704" r="4" fill="#0f0"/><text x="1038.101312" y="421.824704" fill="#fff" font-size="10">重庆</text><circle cx="1046.185984" cy="402.551808" r="4" fill="#0f0"/><text x="1051.185984" y="397.551808" fill="#fff" font-size="10">西安</text><circle cx="1093.4046719999997" cy="378.279936" r="4" fill="#0f0"/><text x="1098.4046719999997" y="373.279936" fill="#fff" font-size="10">天津</text><circle cx="1112.745984" cy="417.722368" r="4" fill="#0f0"/><text x="1117.745984" y="412.722368" fill="#fff" font-size="10">苏州</text><circle cx="1074.061312" cy="459.69408" r="4" fill="#0f0"/><text x="1079.061312" y="454.69408" fill="#fff" font-size="10">东莞</text><circle cx="1072.924672" cy="463.234048" r="4" fill="#0f0"/><text x="1077.924672" y="458.234048" fill="#fff" font-size="10">珠海</text><circle cx="1070.08" cy="459.69408" r="4" fill="#0f0"/><text x="1075.08" y="454.69408" fill="#fff" font-size="10">佛山</text><circle cx="1069.510656" cy="433.398784" r="4" fill="#0f0"/><text x="1074.510656" y="428.398784" fill="#fff" font-size="10">长沙</text><circle cx="1073.494016" cy="400.023552" r="4" fill="#0f0"/><text x="1078.494016" y="395.023552" fill="#fff" font-size="10">郑州</text><circle cx="1111.609344" cy="393.449472" r="4" fill="#0f0"/><text x="1116.609344" y="388.449472" fill="#fff" font-size="10">青岛</text><circle cx="1118.435328" cy="379.290624" r="4" fill="#0f0"/><text x="1123.435328" y="374.290624" fill="#fff" font-size="10">大连</text><circle cx="1098.524672" cy="452.108288" r="4" fill="#0f0"/><text x="1103.524672" y="447.108288" fill="#fff" font-size="10">厦门</text><circle cx="1117.865984" cy="424.802304" r="4" fill="#0f0"/><text x="1122.865984" y="419.802304" fill="#fff" font-size="10">宁波</text><circle cx="1111.04" cy="416.205824" r="4" fill="#0f0"/><text x="1116.04" y="411.205824" fill="#fff" font-size="10">无锡</text><circle cx="1093.4046719999997" cy="415.194112" r="4" fill="#0f0"/><text x="1098.4046719999997" y="410.194112" fill="#fff" font-size="10">合肥</text><circle cx="1092.265984" cy="390.41535999999996" r="4" fill="#0f0"/><text x="1097.265984" y="385.41535999999996" fill="#fff" font-size="10">济南</text><circle cx="1105.350656" cy="444.017664" r="4" fill="#0f0"/><text x="1110.350656" y="439.017664" fill="#fff" font-size="10">福州</text><circle cx="1010.9153279999999" cy="449.5800320000001" r="4" fill="#0f0"/><text x="1015.9153279999999" y="444.5800320000001" fill="#fff" font-size="10">昆明</text><circle cx="1033.101312" cy="441.489408" r="4" fill="#0f0"/><text x="1038.101312" y="436.489408" fill="#fff" font-size="10">贵阳</text><circle cx="1086.009344" cy="430.8705279999999" r="4" fill="#0f0"/><text x="1091.009344" y="425.8705279999999" fill="#fff" font-size="10">南昌</text><circle cx="1128.675328" cy="364.62592" r="4" fill="#0f0"/><text x="1133.675328" y="359.62592" fill="#fff" font-size="10">沈阳</text><circle cx="1139.484672" cy="354.00703999999996" r="4" fill="#0f0"/><text x="1144.484672" y="349.00703999999996" fill="#fff" font-size="10">长春</text><circle cx="1146.88" cy="344.398848" r="4" fill="#0f0"/><text x="1151.88" y="339.398848" fill="#fff" font-size="10">哈尔滨</text><circle cx="1066.665984" cy="384.34816" r="4" fill="#0f0"/><text x="1071.665984" y="379.34816" fill="#fff" font-size="10">太原</text><circle cx="1078.044672" cy="383.842304" r="4" fill="#0f0"/><text x="1083.044672" y="378.842304" fill="#fff" font-size="10">石家庄</text><circle cx="1042.774016" cy="460.704768" r="4" fill="#0f0"/><text x="1047.774016" y="455.704768" fill="#fff" font-size="10">南宁</text><circle cx="944.924672" cy="425.812992" r="4" fill="#0f0"/><text x="949.924672" y="420.812992" fill="#fff" font-size="10">拉萨</text><circle cx="925.014016" cy="354.512896" r="4" fill="#0f0"/><text x="930.014016" y="349.512896" fill="#fff" font-size="10">乌鲁木齐</text><circle cx="1017.174016" cy="393.449472" r="4" fill="#0f0"/><text x="1022.174016" y="388.449472" fill="#fff" font-size="10">兰州</text><circle cx="1031.3953279999998" cy="381.314048" r="4" fill="#0f0"/><text x="1036.3953279999998" y="376.314048" fill="#fff" font-size="10">银川</text><circle cx="1005.7953279999999" cy="390.9212160000001" r="4" fill="#0f0"/><text x="1010.7953279999999" y="385.9212160000001" fill="#fff" font-size="10">西宁</text><circle cx="1062.115328" cy="369.683456" r="4" fill="#0f0"/><text x="1067.115328" y="364.683456" fill="#fff" font-size="10">呼和浩特</text><text x="1088.8540159999998" y="359.234112" fill="#ff0" font-size="16" font-weight="bold">CN</text><path d="M1192.616,381.726L1193.333,383.681L1190.138,387.119L1187.803,385.299L1184.875,386.618L1183.38,389.949L1179.673,388.332L1179.714,385.626L1182.868,382.237L1186.103,382.892L1188.438,380.504ZM1228.661,364.703L1226.531,369.248L1227.514,372.098L1224.545,376.103L1217.274,378.78L1207.28,379.127L1199.17,385.626L1195.36,383.44L1195.115,379.185L1185.223,380.436L1178.485,383.123L1171.829,383.229L1177.604,387.417L1173.795,397.084L1170.129,399.472L1167.364,397.267L1168.777,392.135L1165.173,390.479L1162.858,386.579L1168.245,384.827L1171.214,381.255L1176.949,378.308L1181.106,374.428L1192.432,372.724L1198.514,373.889L1204.474,363.778L1208.263,366.494L1216.619,360.803L1219.855,358.598L1223.418,351.637L1222.456,345.243L1224.852,341.642L1230.894,340.602L1234.007,348.488L1233.822,353.1L1228.579,358.829ZM1245.353,324.695L1249.346,325.908L1253.381,323.501L1254.651,329.885L1246.213,331.445L1241.216,337.097L1232.286,333.207L1229.173,339.427L1222.865,339.514L1222.067,333.862L1224.893,329.481L1230.955,329.163L1232.614,321.296L1234.314,316.867L1240.99,322.789Z" fill="rgba(255,255,255,0.2)" stroke="#ff0" stroke-width="2"/><circle cx="1221.4046719999997" cy="395.472896" r="4" fill="#0f0"/><text x="1226.4046719999997" y="390.472896" fill="#fff" font-size="10">东京</text><circle cx="1220.835328" cy="396.98943999999995" r="4" fill="#0f0"/><text x="1225.835328" y="391.98943999999995" fill="#fff" font-size="10">横滨</text><circle cx="1197.510656" cy="400.529408" r="4" fill="#0f0"/><text x="1202.510656" y="395.529408" fill="#fff" font-size="10">大阪</text><circle cx="1199.2186879999997" cy="399.01184" r="4" fill="#0f0"/><text x="1204.2186879999997" y="394.01184" fill="#fff" font-size="10">京都</text><circle cx="1205.475328" cy="398.001152" r="4" fill="#0f0"/><text x="1210.475328" y="393.001152" fill="#fff" font-size="10">名古屋</text><circle cx="1168.498688" cy="406.091776" r="4" fill="#0f0"/><text x="1173.498688" y="401.091776" fill="#fff" font-size="10">福冈</text><circle cx="1230.505984" cy="358.05184" r="4" fill="#0f0"/><text x="1235.505984" y="353.05184" fill="#fff" font-size="10">札幌</text><circle cx="1195.804672" cy="400.529408" r="4" fill="#0f0"/><text x="1200.804672" y="395.529408" fill="#fff" font-size="10">神户</text><circle cx="1228.2306559999997" cy="382.324736" r="4" fill="#0f0"/><text x="1233.2306559999997" y="377.324736" fill="#fff" font-size="10">仙台</text><circle cx="1180.444672" cy="402.045952" r="4" fill="#0f0"/><text x="1185.444672" y="397.045952" fill="#fff" font-size="10">广岛</text><circle cx="1223.68" cy="393.449472" r="4" fill="#0f0"/><text x="1228.68" y="388.449472" fill="#fff" font-size="10">筑波</text><text x="1221.4046719999997" y="380.472896" fill="#ff0" font-size="16" font-weight="bold">JP</text><path d="M1589.809,467.432L1588.969,468.385L1587.556,467.577L1587.72,465.988L1586.778,463.908L1587.065,463.282L1588.048,462.348L1587.659,461.231L1587.986,460.702L1588.417,460.808L1590.608,461.771L1591.611,462.262L1592.533,463.022L1593.987,465.015L1593.844,465.333L1591.632,466.546ZM1586.758,458.555L1584.832,458.969L1583.87,457.765L1583.215,457.303L1583.153,456.947L1583.706,456.465L1585.734,457.004L1587.229,457.871ZM1582.887,455.531L1582.703,456.138L1579.651,455.974L1580.081,455.281ZM1577.787,454.703L1577.48,455.03L1577.091,454.953L1575.104,454.751L1574.388,453.471L1574.162,453.239L1575.678,452.45L1576.149,452.816ZM1568.162,450.948L1567.486,451.506L1565.581,450.476L1565.868,450.062L1566.748,449.503L1568.059,449.619ZM2048,352.987L2046.866,352.725L2045.002,351.3L2046.17,354.362L2047.583,355.373L2047.685,357.52L2045.862,359.734L2042.647,364.279L2042.135,364.048L2043.896,360.177L2040.988,358.011L2040.312,353.283L2039.227,355.738L2040.435,359.349L2036.687,358.454L2040.599,360.293L2040.845,365.704L2042.463,366.099L2043.057,368.063L2043.855,373.754L2040.251,377.981L2034.353,379.666L2030.625,382.997L2027.778,383.363L2024.891,385.453L2024.092,387.369L2017.845,391.057L2014.63,393.762L2011.947,397.142L2011.067,401.177L2012.091,405.134L2013.975,409.997L2016.514,414.021L2016.535,416.486L2019.238,423.082L2019.054,426.914L2018.808,429.129L2017.395,432.605L2015.695,433.327L2012.889,432.634L2011.988,430.14L2009.838,428.83L2006.807,423.939L2004.165,419.587L2003.305,417.363L2004.472,413.578L2002.895,410.449L1998.451,405.693L1996.239,404.826L1990.484,407.406L1989.48,407.118L1986.716,404.47L1983.152,403.054L1976.721,403.776L1971.663,403.141L1967.321,403.536L1964.986,404.422L1966.01,405.933L1965.908,408.244L1967.116,409.371L1966.031,410.112L1963.921,409.274L1961.791,410.353L1957.654,410.18L1953.415,407.175L1948.459,407.878L1944.322,406.559L1940.778,406.964L1935.986,408.292L1930.805,412.51L1925.152,414.965L1922.039,417.68L1920.749,420.242L1920.687,424.161L1920.974,426.895L1922.039,428.83L1919.827,429.004L1915.793,427.752L1911.348,425.98L1909.751,423.313L1908.502,419.327L1905.143,416.082L1903.177,412.75L1900.33,408.86L1896.316,406.588L1891.667,406.694L1888.083,411.191L1883.372,409.486L1880.423,407.772L1879.01,404.643L1877.126,401.668L1873.747,399.164L1870.839,397.373L1868.75,395.351L1858.899,395.351L1858.899,397.701L1854.372,397.701L1843.067,397.739L1830.083,393.734L1821.502,390.97L1822.034,389.853L1814.805,390.469L1808.333,390.912L1807.391,388.004L1803.704,384.731L1801.042,384.047L1800.428,382.42L1797.233,382.131L1795.185,380.6L1789.901,380.032L1788.447,379.117L1787.771,375.997L1782.241,370.278L1777.51,362.373L1777.715,361.054L1775.196,359.176L1770.793,354.41L1770.015,349.769L1766.983,346.658L1768.233,341.95L1768.028,337.068L1766.205,332.706L1768.438,327.343L1769.134,322.182L1769.81,317.021L1768.786,309.395L1766.983,304.523L1765.345,301.885L1766.021,300.777L1774.254,302.703L1777.285,308.076L1778.698,306.574L1777.776,301.914L1775.851,297.244L1791.99,297.244L1808.886,297.244L1814.477,297.244L1831.824,297.244L1848.597,297.244L1865.678,297.244L1882.738,297.244L1902.071,297.244L1921.548,297.244L1933.324,297.244L1933.344,295.058L1935.269,295.029L1936.273,298.158L1938.034,299.121L1942.007,299.468L1947.824,300.373L1953.333,302.135L1957.941,301.394L1964.945,302.876L1966.809,302.819L1971.888,301.211L1977.233,303.271L1982.804,305.476L1987.391,307.373L1991.815,309.193L1992.368,310.685L1993.699,311.244L1993.351,311.812L1994.887,311.985L1995.993,311.398L1996.28,312.746L1997.427,313.641L1998.983,313.641L1999.823,314.344L1999.106,315.355L2005.045,318.023L2006.254,323.184L2007.401,328.133L2005.742,331.493L2003.059,334.623L2001.809,336.616L2001.687,337.203L2002.321,338.021L2004.247,338.917L2005.68,338.917L2012.295,335.874L2018.153,334.979L2025.587,332.158L2025.689,331.58L2025.177,329.837L2024.276,328.72L2026.836,327.825L2032.427,327.796L2037.65,327.805L2039.473,325.581L2040.169,325.138L2046.19,321.046L2048,320.302L2048,352.987ZM0,320.302L0.75,319.996L9.393,319.958L19.879,319.958L20.452,318.552L22.275,318.263L24.691,317.387L26.719,314.797L28.439,310.368L32.781,306.073L34.665,307.566L38.495,306.603L41.014,308.249L41.014,316L44.721,319.216L44.721,319.216L45.704,321.084L39.642,323.838L33.785,325.803L27.784,327.488L24.773,330.867L23.811,332.148L23.749,335.162L25.634,338.176L27.989,338.32L27.395,336.24L29.095,337.502L28.644,339.129L24.794,340.053L22.07,339.947L17.872,340.939L15.393,341.218L12.076,341.497L7.345,343.144L15.701,342.075L17.38,343.154L9.413,344.858L5.788,344.868L5.952,344.174L4.232,345.753L5.911,346.013L4.682,350.096L0.525,354.477L0.115,353.013L0,352.987L0,320.302ZM1604.227,251.074L1598.554,253.24L1595.646,251.777L1594.765,249.109L1599.926,247.087L1602.957,246.221L1606.746,246.606L1609.142,248.368ZM1532.71,235.177L1529.208,236.062L1525.481,235.003L1522.04,233.453L1527.652,232.48L1532.157,233ZM1497.71,213.146L1501.212,214.234L1504.755,213.647L1509.363,215.149L1515.015,215.909L1514.544,216.526L1510.223,217.729L1505.902,216.497L1503.731,215.466L1498.713,215.794L1497.362,215.293ZM1672.611,179.416L1672.57,200.532L1672.549,232.923L1678.14,233.087L1683.69,234.666L1687.664,237.16L1692.722,240.896L1698.252,237.718L1703.966,235.87L1706.976,238.816L1710.806,241.146L1716.029,243.708L1719.572,247.79L1725.388,254.28L1735.075,257.9L1735.219,261.492L1732.065,264.236L1728.931,262.089L1723.914,260.279L1722.316,255.32L1714.984,250.717L1711.912,245.344L1706.444,244.979L1697.412,244.834L1690.736,243.197L1678.98,237.295L1673.532,236.216L1663.579,234.185L1655.694,234.676L1644.512,232.057L1637.753,229.63L1631.425,230.834L1632.613,234.791L1629.459,235.157L1622.885,236.342L1617.867,238.258L1611.559,239.471L1610.76,236.12L1613.32,230.535L1619.362,228.783L1617.806,227.358L1610.556,230.526L1606.664,234.32L1598.472,238.364L1602.63,241.127L1597.264,245.21L1591.14,247.598L1585.447,249.331L1584.034,251.844L1575.145,254.781L1573.364,257.457L1566.708,259.884L1562.796,259.451L1557.491,261.039L1551.716,262.975L1546.985,264.872L1537.216,266.499L1536.335,265.546L1542.561,262.888L1548.111,261.136L1554.174,258.016L1561.239,257.38L1564.045,255.041L1571.93,251.642L1573.2,250.496L1577.398,248.493L1578.381,244.179L1581.269,240.819L1574.715,242.543L1572.872,241.56L1569.8,243.631L1566.093,240.742L1564.557,242.783L1562.427,239.952L1556.734,242.225L1553.252,242.225L1552.76,238.835L1553.784,236.756L1550.119,234.724L1542.725,235.812L1537.912,233.145L1534.021,231.778L1534.001,228.562L1529.618,226.135L1531.83,222.861L1536.458,219.684L1538.486,216.766L1543.094,216.352L1547.006,217.257L1551.593,214.513L1555.71,215.004L1560.051,213.242L1558.986,210.642L1555.812,209.622L1560.01,207.426L1556.529,207.494L1550.487,208.726L1548.746,209.988L1544.261,208.726L1536.233,209.371L1527.898,208.004L1525.501,205.712L1518.313,202.41L1526.3,200.031L1538.998,197.249L1543.667,197.249L1542.889,200.099L1554.89,199.877L1550.282,196.353L1543.278,194.187L1539.244,191.337L1533.775,188.91L1525.972,187.11L1529.147,184.134L1539.244,183.951L1546.412,181.352L1547.763,178.588L1553.58,175.882L1559.13,175.228L1569.902,172.705L1575.145,173.09L1583.89,170.057L1592.513,171.251L1596.629,173.812L1599.148,172.715L1608.753,173.052L1608.426,174.361L1617.13,175.334L1622.926,174.766L1634.907,176.557L1645.843,177.096L1650.226,177.837L1657.803,176.913L1666.426,178.617Z" fill="rgba(255,255,255,0.2)" stroke="#ff0" stroke-width="2"/><circle cx="1778.345984" cy="384.852992" r="4" fill="#0f0"/><text x="1783.345984" y="379.852992" fill="#fff" font-size="10">旧金山</text><circle cx="1781.1906559999998" cy="387.381248" r="4" fill="#0f0"/><text x="1786.1906559999998" y="382.381248" fill="#fff" font-size="10">圣何塞</text><circle cx="1802.2400000000002" cy="403.56352" r="4" fill="#0f0"/><text x="1807.2400000000002" y="398.56352" fill="#fff" font-size="10">洛杉矶</text><circle cx="1807.9293439999997" cy="410.643456" r="4" fill="#0f0"/><text x="1812.9293439999997" y="405.643456" fill="#fff" font-size="10">圣地亚哥</text><circle cx="1778.915328" cy="335.296512" r="4" fill="#0f0"/><text x="1783.915328" y="330.296512" fill="#fff" font-size="10">西雅图</text><circle cx="1776.6399999999999" cy="345.916416" r="4" fill="#0f0"/><text x="1781.6399999999999" y="340.916416" fill="#fff" font-size="10">波特兰</text><circle cx="5.6893440000000055" cy="370.18828799999994" r="4" fill="#0f0"/><text x="10.689344000000006" y="365.18828799999994" fill="#fff" font-size="10">纽约</text><circle cx="22.185983999999962" cy="361.591808" r="4" fill="#0f0"/><text x="27.185983999999962" y="356.591808" fill="#fff" font-size="10">波士顿</text><circle cx="2036.6213120000002" cy="379.290624" r="4" fill="#0f0"/><text x="2041.6213120000002" y="374.290624" fill="#fff" font-size="10">华盛顿</text><circle cx="2046.861312" cy="373.728256" r="4" fill="#0f0"/><text x="2051.861312" y="368.728256" fill="#fff" font-size="10">费城</text><circle cx="1976.32" cy="364.120064" r="4" fill="#0f0"/><text x="1981.32" y="359.120064" fill="#fff" font-size="10">芝加哥</text><circle cx="2002.489344" cy="362.097664" r="4" fill="#0f0"/><text x="2007.489344" y="357.097664" fill="#fff" font-size="10">底特律</text><circle cx="1918.861312" cy="422.77887999999996" r="4" fill="#0f0"/><text x="1923.861312" y="417.77887999999996" fill="#fff" font-size="10">奥斯汀</text><circle cx="1923.981312" cy="410.1376" r="4" fill="#0f0"/><text x="1928.981312" y="405.1376" fill="#fff" font-size="10">达拉斯</text><circle cx="1931.945984" cy="425.30815999999993" r="4" fill="#0f0"/><text x="1936.945984" y="420.30815999999993" fill="#fff" font-size="10">休斯顿</text><circle cx="2018.4186880000002" cy="445.53523199999995" r="4" fill="#0f0"/><text x="2023.4186880000002" y="440.53523199999995" fill="#fff" font-size="10">迈阿密</text><circle cx="1994.5246719999998" cy="405.58592" r="4" fill="#0f0"/><text x="1999.5246719999998" y="400.58592" fill="#fff" font-size="10">亚特兰大</text><circle cx="1877.3340159999998" cy="375.245824" r="4" fill="#0f0"/><text x="1882.3340159999998" y="370.245824" fill="#fff" font-size="10">丹佛</text><circle cx="1836.941312" cy="407.1034880000001" r="4" fill="#0f0"/><text x="1841.941312" y="402.1034880000001" fill="#fff" font-size="10">凤凰城</text><circle cx="1819.875328" cy="392.94463999999994" r="4" fill="#0f0"/><text x="1824.875328" y="387.94463999999994" fill="#fff" font-size="10">拉斯维加斯</text><circle cx="1838.08" cy="369.683456" r="4" fill="#0f0"/><text x="1843.08" y="364.683456" fill="#fff" font-size="10">盐湖城</text><circle cx="1943.8940159999997" cy="348.444672" r="4" fill="#0f0"/><text x="1948.8940159999997" y="343.444672" fill="#fff" font-size="10">明尼阿波利斯</text><circle cx="1961.5293439999998" cy="380.808192" r="4" fill="#0f0"/><text x="1966.5293439999998" y="375.808192" fill="#fff" font-size="10">圣路易斯</text><circle cx="2019.555328" cy="371.7058559999999" r="4" fill="#0f0"/><text x="2024.555328" y="366.7058559999999" fill="#fff" font-size="10">匹兹堡</text><circle cx="2027.52" cy="394.96704" r="4" fill="#0f0"/><text x="2032.52" y="389.96704" fill="#fff" font-size="10">罗利</text><circle cx="2002.489344" cy="373.728256" r="4" fill="#0f0"/><text x="2007.489344" y="368.728256" fill="#fff" font-size="10">哥伦布</text><circle cx="1980.8706560000003" cy="392.94463999999994" r="4" fill="#0f0"/><text x="1985.8706560000003" y="387.94463999999994" fill="#fff" font-size="10">纳什维尔</text><circle cx="1993.955328" cy="378.279936" r="4" fill="#0f0"/><text x="1998.955328" y="373.279936" fill="#fff" font-size="10">辛辛那提</text><circle cx="1936.4986879999997" cy="378.279936" r="4" fill="#0f0"/><text x="1941.4986879999997" y="373.279936" fill="#fff" font-size="10">堪萨斯城</text><circle cx="2011.590656" cy="431.881216" r="4" fill="#0f0"/><text x="2016.590656" y="426.881216" fill="#fff" font-size="10">奥兰多</text><circle cx="2005.334016" cy="434.40947200000005" r="4" fill="#0f0"/><text x="2010.334016" y="429.40947200000005" fill="#fff" font-size="10">坦帕</text><circle cx="1914.3106560000003" cy="427.33056" r="4" fill="#0f0"/><text x="1919.3106560000003" y="422.33056" fill="#fff" font-size="10">圣安东尼奥</text><circle cx="1928.534016" cy="367.154176" r="4" fill="#0f0"/><text x="1933.534016" y="362.154176" fill="#fff" font-size="10">奥马哈</text><circle cx="1966.08" cy="358.05184" r="4" fill="#0f0"/><text x="1971.08" y="353.05184" fill="#fff" font-size="10">麦迪逊</text><circle cx="1621.901312" cy="266.524672" r="4" fill="#0f0"/><text x="1626.901312" y="261.524672" fill="#fff" font-size="10">安克雷奇</text><circle cx="1576.390656" cy="468.2905600000001" r="4" fill="#0f0"/><text x="1581.390656" y="463.2905600000001" fill="#fff" font-size="10">檀香山</text><text x="1778.345984" y="369.852992" fill="#ff0" font-size="16" font-weight="bold">US</text></svg>